# xmcd
#
# Track frame offsets: 
#        150
#        24508
#        49693
#        66907
#        85071
#        116632
#        139213
#        167410
#        188170
#        212549
#        231450
#        246501
#
# Disc length: 3536 seconds
#
# Revision: 3
# Processed by: cddbd v1.5.2PL0 Copyright (c) Steve Scherf et al.
# Submitted via: ExactAudioCopy v0.99pb5
#
DISCID=a70dce0c
DTITLE=New Swing Sextet - Back on the Streets
DYEAR=2008
DGENRE=Salsa
TTITLE0=Che Che
TTITLE1=Bobo tu te Quedaras
TTITLE2=El Raton
TTITLE3=Sarondonga
TTITLE4=En el Balcon
TTITLE5=The Monster
TTITLE6=Amor Jibaro
TTITLE7=Ay Carino
TTITLE8=El Bongo
TTITLE9=Flight
TTITLE10=El Tiroteo
TTITLE11=Monta mi Caballito
EXTD=YEAR: 2008
EXTT0=
EXTT1=
EXTT2=
EXTT3=
EXTT4=
EXTT5=
EXTT6=
EXTT7=
EXTT8=
EXTT9=
EXTT10=
EXTT11=
PLAYORDER=
